<svg width="472pt" height="911pt" viewBox="0 0 472 911" xmlns="http://www.w3.org/2000/svg" xmlns:xlink="http://www.w3.org/1999/xlink">
<g id="graph0" class="graph" transform="scale(1 1) rotate(0) translate(4 907.2)">
<title>G</title>
<polygon fill="#ffffff" stroke="transparent" points="-4,4 -4,-907.2 468,-907.2 468,4 -4,4"></polygon>
<g id="clust1" class="cluster">
<title>cluster_a</title>
<polygon fill="#ffffff" stroke="#000000" points="8,-748.8 8,-895.2 78,-895.2 78,-748.8 8,-748.8"></polygon>
<text text-anchor="middle" x="43" y="-880.4" font-family="Arial" font-size="12.00" fill="#000000">test = 1</text>
</g>
<g id="clust2" class="cluster">
<title>cluster_b</title>
<polygon fill="#ffffff" stroke="#000000" points="86,-676.8 86,-895.2 156,-895.2 156,-676.8 86,-676.8"></polygon>
<text text-anchor="middle" x="121" y="-880.4" font-family="Arial" font-size="12.00" fill="#000000">tester = 2</text>
</g>
<g id="clust3" class="cluster">
<title>cluster_c</title>
<polygon fill="#ffffff" stroke="#000000" points="164,-676.8 164,-895.2 306,-895.2 306,-676.8 164,-676.8"></polygon>
<text text-anchor="middle" x="235" y="-880.4" font-family="Arial" font-size="12.00" fill="#000000">testing = 3</text>
</g>
<g id="clust4" class="cluster">
<title>cluster_d</title>
<polygon fill="#ffffff" stroke="#000000" points="314,-594.4 314,-895.2 456,-895.2 456,-594.4 314,-594.4"></polygon>
<text text-anchor="middle" x="385" y="-880.4" font-family="Arial" font-size="12.00" fill="#000000">travel = 4</text>
</g>
<g id="clust6" class="cluster">
<title>cluster_e</title>
<polygon fill="#ffffff" stroke="#000000" points="13,-378.4 13,-668.8 299,-668.8 299,-378.4 13,-378.4"></polygon>
<text text-anchor="middle" x="156" y="-654" font-family="Arial" font-size="12.00" fill="#000000">tramway = 5</text>
</g>
<g id="clust9" class="cluster">
<title>cluster_f</title>
<polygon fill="#ffffff" stroke="#000000" points="10,-8 10,-370.4 296,-370.4 296,-8 10,-8"></polygon>
<text text-anchor="middle" x="153" y="-355.6" font-family="Arial" font-size="12.00" fill="#000000">tram = 6</text>
</g>
<!-- a_root -->
<g id="node1" class="node">
<title>a_root</title>
<defs>
<linearGradient id="l_0" gradientUnits="userSpaceOnUse" x1="16" y1="-846.8" x2="70" y2="-846.8">
<stop offset="0" style="stop-color:#ffffff;stop-opacity:1.;"></stop>
<stop offset="1" style="stop-color:#e0ffff;stop-opacity:1.;"></stop>
</linearGradient>
</defs>
<ellipse fill="url(#l_0)" stroke="#004080" stroke-width=".3" cx="43" cy="-846.8" rx="27" ry="18"></ellipse>
<text text-anchor="middle" x="43" y="-843.8" font-family="Helvetica,sans-Serif" font-size="10.00" fill="#000000">root</text>
</g>
<!-- a_test -->
<g id="node2" class="node">
<title>a_test</title>
<defs>
<linearGradient id="l_1" gradientUnits="userSpaceOnUse" x1="16" y1="-774.8" x2="70" y2="-774.8">
<stop offset="0" style="stop-color:#e0ffff;stop-opacity:1.;"></stop>
<stop offset="1" style="stop-color:#80ffff;stop-opacity:1.;"></stop>
</linearGradient>
</defs>
<ellipse fill="url(#l_1)" stroke="#004080" stroke-width=".3" cx="43" cy="-774.8" rx="27" ry="18"></ellipse>
<text text-anchor="middle" x="43" y="-771.8" font-family="Helvetica,sans-Serif" font-size="10.00" fill="#000000">test = 1</text>
</g>
<!-- a_root&#45;&gt;a_test -->
<g id="edge1" class="edge">
<title>a_root-&gt;a_test</title>
<path fill="none" stroke="#004080" stroke-width=".3" d="M43,-828.6314C43,-820.931 43,-811.7743 43,-803.2166"></path>
<polygon fill="#004080" stroke="#004080" stroke-width=".3" points="46.5001,-803.2132 43,-793.2133 39.5001,-803.2133 46.5001,-803.2132"></polygon>
</g>
<!-- b_root -->
<g id="node3" class="node">
<title>b_root</title>
<defs>
<linearGradient id="l_2" gradientUnits="userSpaceOnUse" x1="94" y1="-846.8" x2="148" y2="-846.8">
<stop offset="0" style="stop-color:#ffffff;stop-opacity:1.;"></stop>
<stop offset="1" style="stop-color:#e0ffff;stop-opacity:1.;"></stop>
</linearGradient>
</defs>
<ellipse fill="url(#l_2)" stroke="#004080" stroke-width=".3" cx="121" cy="-846.8" rx="27" ry="18"></ellipse>
<text text-anchor="middle" x="121" y="-843.8" font-family="Helvetica,sans-Serif" font-size="10.00" fill="#000000">root</text>
</g>
<!-- b_test -->
<g id="node4" class="node">
<title>b_test</title>
<defs>
<linearGradient id="l_3" gradientUnits="userSpaceOnUse" x1="94" y1="-774.8" x2="148" y2="-774.8">
<stop offset="0" style="stop-color:#e0ffff;stop-opacity:1.;"></stop>
<stop offset="1" style="stop-color:#80ffff;stop-opacity:1.;"></stop>
</linearGradient>
</defs>
<ellipse fill="url(#l_3)" stroke="#004080" stroke-width=".3" cx="121" cy="-774.8" rx="27" ry="18"></ellipse>
<text text-anchor="middle" x="121" y="-771.8" font-family="Helvetica,sans-Serif" font-size="10.00" fill="#000000">test = 1</text>
</g>
<!-- b_root&#45;&gt;b_test -->
<g id="edge2" class="edge">
<title>b_root-&gt;b_test</title>
<path fill="none" stroke="#004080" stroke-width=".3" d="M121,-828.6314C121,-820.931 121,-811.7743 121,-803.2166"></path>
<polygon fill="#004080" stroke="#004080" stroke-width=".3" points="124.5001,-803.2132 121,-793.2133 117.5001,-803.2133 124.5001,-803.2132"></polygon>
</g>
<!-- b_test_er -->
<g id="node5" class="node">
<title>b_test_er</title>
<defs>
<linearGradient id="l_4" gradientUnits="userSpaceOnUse" x1="94" y1="-702.8" x2="148" y2="-702.8">
<stop offset="0" style="stop-color:#e0ffff;stop-opacity:1.;"></stop>
<stop offset="1" style="stop-color:#80ffff;stop-opacity:1.;"></stop>
</linearGradient>
</defs>
<ellipse fill="url(#l_4)" stroke="#004080" stroke-width=".3" cx="121" cy="-702.8" rx="27" ry="18"></ellipse>
<text text-anchor="middle" x="121" y="-699.8" font-family="Helvetica,sans-Serif" font-size="10.00" fill="#000000">er = 2</text>
</g>
<!-- b_test&#45;&gt;b_test_er -->
<g id="edge3" class="edge">
<title>b_test-&gt;b_test_er</title>
<path fill="none" stroke="#004080" stroke-width=".3" d="M121,-756.6314C121,-748.931 121,-739.7743 121,-731.2166"></path>
<polygon fill="#004080" stroke="#004080" stroke-width=".3" points="124.5001,-731.2132 121,-721.2133 117.5001,-731.2133 124.5001,-731.2132"></polygon>
</g>
<!-- e_root -->
<g id="node16" class="node">
<title>e_root</title>
<defs>
<linearGradient id="l_5" gradientUnits="userSpaceOnUse" x1="94" y1="-620.4" x2="148" y2="-620.4">
<stop offset="0" style="stop-color:#ffffff;stop-opacity:1.;"></stop>
<stop offset="1" style="stop-color:#e0ffff;stop-opacity:1.;"></stop>
</linearGradient>
</defs>
<ellipse fill="url(#l_5)" stroke="#004080" stroke-width=".3" cx="121" cy="-620.4" rx="27" ry="18"></ellipse>
<text text-anchor="middle" x="121" y="-617.4" font-family="Helvetica,sans-Serif" font-size="10.00" fill="#000000">root</text>
</g>
<!-- b_test_er&#45;&gt;e_root -->
<!-- c_root -->
<g id="node6" class="node">
<title>c_root</title>
<defs>
<linearGradient id="l_6" gradientUnits="userSpaceOnUse" x1="208" y1="-846.8" x2="262" y2="-846.8">
<stop offset="0" style="stop-color:#ffffff;stop-opacity:1.;"></stop>
<stop offset="1" style="stop-color:#e0ffff;stop-opacity:1.;"></stop>
</linearGradient>
</defs>
<ellipse fill="url(#l_6)" stroke="#004080" stroke-width=".3" cx="235" cy="-846.8" rx="27" ry="18"></ellipse>
<text text-anchor="middle" x="235" y="-843.8" font-family="Helvetica,sans-Serif" font-size="10.00" fill="#000000">root</text>
</g>
<!-- c_test -->
<g id="node7" class="node">
<title>c_test</title>
<defs>
<linearGradient id="l_7" gradientUnits="userSpaceOnUse" x1="208" y1="-774.8" x2="262" y2="-774.8">
<stop offset="0" style="stop-color:#e0ffff;stop-opacity:1.;"></stop>
<stop offset="1" style="stop-color:#80ffff;stop-opacity:1.;"></stop>
</linearGradient>
</defs>
<ellipse fill="url(#l_7)" stroke="#004080" stroke-width=".3" cx="235" cy="-774.8" rx="27" ry="18"></ellipse>
<text text-anchor="middle" x="235" y="-771.8" font-family="Helvetica,sans-Serif" font-size="10.00" fill="#000000">test = 1</text>
</g>
<!-- c_root&#45;&gt;c_test -->
<g id="edge4" class="edge">
<title>c_root-&gt;c_test</title>
<path fill="none" stroke="#004080" stroke-width=".3" d="M235,-828.6314C235,-820.931 235,-811.7743 235,-803.2166"></path>
<polygon fill="#004080" stroke="#004080" stroke-width=".3" points="238.5001,-803.2132 235,-793.2133 231.5001,-803.2133 238.5001,-803.2132"></polygon>
</g>
<!-- c_test_er -->
<g id="node8" class="node">
<title>c_test_er</title>
<defs>
<linearGradient id="l_8" gradientUnits="userSpaceOnUse" x1="172" y1="-702.8" x2="226" y2="-702.8">
<stop offset="0" style="stop-color:#e0ffff;stop-opacity:1.;"></stop>
<stop offset="1" style="stop-color:#80ffff;stop-opacity:1.;"></stop>
</linearGradient>
</defs>
<ellipse fill="url(#l_8)" stroke="#004080" stroke-width=".3" cx="199" cy="-702.8" rx="27" ry="18"></ellipse>
<text text-anchor="middle" x="199" y="-699.8" font-family="Helvetica,sans-Serif" font-size="10.00" fill="#000000">er = 2</text>
</g>
<!-- c_test&#45;&gt;c_test_er -->
<g id="edge5" class="edge">
<title>c_test-&gt;c_test_er</title>
<path fill="none" stroke="#004080" stroke-width=".3" d="M226.2854,-757.3708C222.0403,-748.8807 216.8464,-738.4929 212.1337,-729.0674"></path>
<polygon fill="#004080" stroke="#004080" stroke-width=".3" points="215.237,-727.4477 207.6343,-720.0687 208.976,-730.5782 215.237,-727.4477"></polygon>
</g>
<!-- c_test_ing -->
<g id="node9" class="node">
<title>c_test_ing</title>
<defs>
<linearGradient id="l_9" gradientUnits="userSpaceOnUse" x1="244" y1="-702.8" x2="298" y2="-702.8">
<stop offset="0" style="stop-color:#e0ffff;stop-opacity:1.;"></stop>
<stop offset="1" style="stop-color:#80ffff;stop-opacity:1.;"></stop>
</linearGradient>
</defs>
<ellipse fill="url(#l_9)" stroke="#004080" stroke-width=".3" cx="271" cy="-702.8" rx="27" ry="18"></ellipse>
<text text-anchor="middle" x="271" y="-699.8" font-family="Helvetica,sans-Serif" font-size="10.00" fill="#000000">ing = 3</text>
</g>
<!-- c_test&#45;&gt;c_test_ing -->
<g id="edge6" class="edge">
<title>c_test-&gt;c_test_ing</title>
<path fill="none" stroke="#004080" stroke-width=".3" d="M243.7146,-757.3708C247.9597,-748.8807 253.1536,-738.4929 257.8663,-729.0674"></path>
<polygon fill="#004080" stroke="#004080" stroke-width=".3" points="261.024,-730.5782 262.3657,-720.0687 254.763,-727.4477 261.024,-730.5782"></polygon>
</g>
<!-- d_root -->
<g id="node10" class="node">
<title>d_root</title>
<defs>
<linearGradient id="l_10" gradientUnits="userSpaceOnUse" x1="358" y1="-846.8" x2="412" y2="-846.8">
<stop offset="0" style="stop-color:#ffffff;stop-opacity:1.;"></stop>
<stop offset="1" style="stop-color:#e0ffff;stop-opacity:1.;"></stop>
</linearGradient>
</defs>
<ellipse fill="url(#l_10)" stroke="#004080" stroke-width=".3" cx="385" cy="-846.8" rx="27" ry="18"></ellipse>
<text text-anchor="middle" x="385" y="-843.8" font-family="Helvetica,sans-Serif" font-size="10.00" fill="#000000">root</text>
</g>
<!-- d_t -->
<g id="node11" class="node">
<title>d_t</title>
<defs>
<linearGradient id="l_11" gradientUnits="userSpaceOnUse" x1="358" y1="-774.8" x2="412" y2="-774.8">
<stop offset="0" style="stop-color:#ffffff;stop-opacity:1.;"></stop>
<stop offset="1" style="stop-color:#e0ffff;stop-opacity:1.;"></stop>
</linearGradient>
</defs>
<ellipse fill="url(#l_11)" stroke="#004080" stroke-width=".3" cx="385" cy="-774.8" rx="27" ry="18"></ellipse>
<text text-anchor="middle" x="385" y="-771.8" font-family="Helvetica,sans-Serif" font-size="10.00" fill="#000000">t</text>
</g>
<!-- d_root&#45;&gt;d_t -->
<g id="edge7" class="edge">
<title>d_root-&gt;d_t</title>
<path fill="none" stroke="#004080" stroke-width=".3" d="M385,-828.6314C385,-820.931 385,-811.7743 385,-803.2166"></path>
<polygon fill="#004080" stroke="#004080" stroke-width=".3" points="388.5001,-803.2132 385,-793.2133 381.5001,-803.2133 388.5001,-803.2132"></polygon>
</g>
<!-- d_t_est -->
<g id="node12" class="node">
<title>d_t_est</title>
<defs>
<linearGradient id="l_12" gradientUnits="userSpaceOnUse" x1="322" y1="-702.8" x2="376" y2="-702.8">
<stop offset="0" style="stop-color:#e0ffff;stop-opacity:1.;"></stop>
<stop offset="1" style="stop-color:#80ffff;stop-opacity:1.;"></stop>
</linearGradient>
</defs>
<ellipse fill="url(#l_12)" stroke="#004080" stroke-width=".3" cx="349" cy="-702.8" rx="27" ry="18"></ellipse>
<text text-anchor="middle" x="349" y="-699.8" font-family="Helvetica,sans-Serif" font-size="10.00" fill="#000000">est = 1</text>
</g>
<!-- d_t&#45;&gt;d_t_est -->
<g id="edge8" class="edge">
<title>d_t-&gt;d_t_est</title>
<path fill="none" stroke="#004080" stroke-width=".3" d="M376.2854,-757.3708C372.0403,-748.8807 366.8464,-738.4929 362.1337,-729.0674"></path>
<polygon fill="#004080" stroke="#004080" stroke-width=".3" points="365.237,-727.4477 357.6343,-720.0687 358.976,-730.5782 365.237,-727.4477"></polygon>
</g>
<!-- d_t_ravel -->
<g id="node13" class="node">
<title>d_t_ravel</title>
<defs>
<linearGradient id="l_13" gradientUnits="userSpaceOnUse" x1="394" y1="-702.8" x2="448" y2="-702.8">
<stop offset="0" style="stop-color:#e0ffff;stop-opacity:1.;"></stop>
<stop offset="1" style="stop-color:#80ffff;stop-opacity:1.;"></stop>
</linearGradient>
</defs>
<ellipse fill="url(#l_13)" stroke="#004080" stroke-width=".3" cx="421" cy="-702.8" rx="27" ry="18"></ellipse>
<text text-anchor="middle" x="421" y="-699.8" font-family="Helvetica,sans-Serif" font-size="10.00" fill="#000000">ravel = 4</text>
</g>
<!-- d_t&#45;&gt;d_t_ravel -->
<g id="edge9" class="edge">
<title>d_t-&gt;d_t_ravel</title>
<path fill="none" stroke="#004080" stroke-width=".3" d="M393.7146,-757.3708C397.9597,-748.8807 403.1536,-738.4929 407.8663,-729.0674"></path>
<polygon fill="#004080" stroke="#004080" stroke-width=".3" points="411.024,-730.5782 412.3657,-720.0687 404.763,-727.4477 411.024,-730.5782"></polygon>
</g>
<!-- d_t_est_er -->
<g id="node14" class="node">
<title>d_t_est_er</title>
<defs>
<linearGradient id="l_14" gradientUnits="userSpaceOnUse" x1="322" y1="-620.4" x2="376" y2="-620.4">
<stop offset="0" style="stop-color:#e0ffff;stop-opacity:1.;"></stop>
<stop offset="1" style="stop-color:#80ffff;stop-opacity:1.;"></stop>
</linearGradient>
</defs>
<ellipse fill="url(#l_14)" stroke="#004080" stroke-width=".3" cx="349" cy="-620.4" rx="27" ry="18"></ellipse>
<text text-anchor="middle" x="349" y="-617.4" font-family="Helvetica,sans-Serif" font-size="10.00" fill="#000000">er = 2</text>
</g>
<!-- d_t_est&#45;&gt;d_t_est_er -->
<g id="edge10" class="edge">
<title>d_t_est-&gt;d_t_est_er</title>
<path fill="none" stroke="#004080" stroke-width=".3" d="M349,-684.5128C349,-674.0581 349,-660.7172 349,-648.9152"></path>
<polygon fill="#004080" stroke="#004080" stroke-width=".3" points="352.5001,-648.6361 349,-638.6361 345.5001,-648.6361 352.5001,-648.6361"></polygon>
</g>
<!-- d_t_est_ing -->
<g id="node15" class="node">
<title>d_t_est_ing</title>
<defs>
<linearGradient id="l_15" gradientUnits="userSpaceOnUse" x1="394" y1="-620.4" x2="448" y2="-620.4">
<stop offset="0" style="stop-color:#e0ffff;stop-opacity:1.;"></stop>
<stop offset="1" style="stop-color:#80ffff;stop-opacity:1.;"></stop>
</linearGradient>
</defs>
<ellipse fill="url(#l_15)" stroke="#004080" stroke-width=".3" cx="421" cy="-620.4" rx="27" ry="18"></ellipse>
<text text-anchor="middle" x="421" y="-617.4" font-family="Helvetica,sans-Serif" font-size="10.00" fill="#000000">ing = 3</text>
</g>
<!-- d_t_est&#45;&gt;d_t_est_ing -->
<g id="edge11" class="edge">
<title>d_t_est-&gt;d_t_est_ing</title>
<path fill="none" stroke="#004080" stroke-width=".3" d="M365.3587,-688.4747C371.7324,-682.61 378.9452,-675.6103 385,-668.8 391.4015,-661.5997 397.8514,-653.3237 403.4881,-645.6752"></path>
<polygon fill="#004080" stroke="#004080" stroke-width=".3" points="406.6709,-647.2452 409.6799,-637.0867 400.9927,-643.1516 406.6709,-647.2452"></polygon>
</g>
<!-- e_t -->
<g id="node17" class="node">
<title>e_t</title>
<defs>
<linearGradient id="l_16" gradientUnits="userSpaceOnUse" x1="94" y1="-548.4" x2="148" y2="-548.4">
<stop offset="0" style="stop-color:#ffffff;stop-opacity:1.;"></stop>
<stop offset="1" style="stop-color:#e0ffff;stop-opacity:1.;"></stop>
</linearGradient>
</defs>
<ellipse fill="url(#l_16)" stroke="#004080" stroke-width=".3" cx="121" cy="-548.4" rx="27" ry="18"></ellipse>
<text text-anchor="middle" x="121" y="-545.4" font-family="Helvetica,sans-Serif" font-size="10.00" fill="#000000">t</text>
</g>
<!-- e_root&#45;&gt;e_t -->
<g id="edge12" class="edge">
<title>e_root-&gt;e_t</title>
<path fill="none" stroke="#004080" stroke-width=".3" d="M121,-602.2314C121,-594.531 121,-585.3743 121,-576.8166"></path>
<polygon fill="#004080" stroke="#004080" stroke-width=".3" points="124.5001,-576.8132 121,-566.8133 117.5001,-576.8133 124.5001,-576.8132"></polygon>
</g>
<!-- e_t_est -->
<g id="node18" class="node">
<title>e_t_est</title>
<defs>
<linearGradient id="l_17" gradientUnits="userSpaceOnUse" x1="93" y1="-476.4" x2="147" y2="-476.4">
<stop offset="0" style="stop-color:#e0ffff;stop-opacity:1.;"></stop>
<stop offset="1" style="stop-color:#80ffff;stop-opacity:1.;"></stop>
</linearGradient>
</defs>
<ellipse fill="url(#l_17)" stroke="#004080" stroke-width=".3" cx="120" cy="-476.4" rx="27" ry="18"></ellipse>
<text text-anchor="middle" x="120" y="-473.4" font-family="Helvetica,sans-Serif" font-size="10.00" fill="#000000">est = 1</text>
</g>
<!-- e_t&#45;&gt;e_t_est -->
<g id="edge13" class="edge">
<title>e_t-&gt;e_t_est</title>
<path fill="none" stroke="#004080" stroke-width=".3" d="M120.7477,-530.2314C120.6407,-522.531 120.5135,-513.3743 120.3947,-504.8166"></path>
<polygon fill="#004080" stroke="#004080" stroke-width=".3" points="123.8944,-504.7637 120.2557,-494.8133 116.8951,-504.8609 123.8944,-504.7637"></polygon>
</g>
<!-- e_t_ra -->
<g id="node19" class="node">
<title>e_t_ra</title>
<defs>
<linearGradient id="l_18" gradientUnits="userSpaceOnUse" x1="165" y1="-476.4" x2="219" y2="-476.4">
<stop offset="0" style="stop-color:#ffffff;stop-opacity:1.;"></stop>
<stop offset="1" style="stop-color:#e0ffff;stop-opacity:1.;"></stop>
</linearGradient>
</defs>
<ellipse fill="url(#l_18)" stroke="#004080" stroke-width=".3" cx="192" cy="-476.4" rx="27" ry="18"></ellipse>
<text text-anchor="middle" x="192" y="-473.4" font-family="Helvetica,sans-Serif" font-size="10.00" fill="#000000">ra</text>
</g>
<!-- e_t&#45;&gt;e_t_ra -->
<g id="edge14" class="edge">
<title>e_t-&gt;e_t_ra</title>
<path fill="none" stroke="#004080" stroke-width=".3" d="M136.0573,-533.1307C145.847,-523.203 158.7831,-510.0847 169.7497,-498.9637"></path>
<polygon fill="#004080" stroke="#004080" stroke-width=".3" points="172.4351,-501.2252 176.9644,-491.6473 167.4508,-496.3102 172.4351,-501.2252"></polygon>
</g>
<!-- e_t_est_er -->
<g id="node20" class="node">
<title>e_t_est_er</title>
<defs>
<linearGradient id="l_19" gradientUnits="userSpaceOnUse" x1="21" y1="-404.4" x2="75" y2="-404.4">
<stop offset="0" style="stop-color:#e0ffff;stop-opacity:1.;"></stop>
<stop offset="1" style="stop-color:#80ffff;stop-opacity:1.;"></stop>
</linearGradient>
</defs>
<ellipse fill="url(#l_19)" stroke="#004080" stroke-width=".3" cx="48" cy="-404.4" rx="27" ry="18"></ellipse>
<text text-anchor="middle" x="48" y="-401.4" font-family="Helvetica,sans-Serif" font-size="10.00" fill="#000000">er = 2</text>
</g>
<!-- e_t_est&#45;&gt;e_t_est_er -->
<g id="edge15" class="edge">
<title>e_t_est-&gt;e_t_est_er</title>
<path fill="none" stroke="#004080" stroke-width=".3" d="M104.7307,-461.1307C94.803,-451.203 81.6847,-438.0847 70.5637,-426.9637"></path>
<polygon fill="#004080" stroke="#004080" stroke-width=".3" points="72.7933,-424.2436 63.2473,-419.6473 67.8436,-429.1933 72.7933,-424.2436"></polygon>
</g>
<!-- e_t_est_ing -->
<g id="node21" class="node">
<title>e_t_est_ing</title>
<defs>
<linearGradient id="l_20" gradientUnits="userSpaceOnUse" x1="93" y1="-404.4" x2="147" y2="-404.4">
<stop offset="0" style="stop-color:#e0ffff;stop-opacity:1.;"></stop>
<stop offset="1" style="stop-color:#80ffff;stop-opacity:1.;"></stop>
</linearGradient>
</defs>
<ellipse fill="url(#l_20)" stroke="#004080" stroke-width=".3" cx="120" cy="-404.4" rx="27" ry="18"></ellipse>
<text text-anchor="middle" x="120" y="-401.4" font-family="Helvetica,sans-Serif" font-size="10.00" fill="#000000">ing = 3</text>
</g>
<!-- e_t_est&#45;&gt;e_t_est_ing -->
<g id="edge16" class="edge">
<title>e_t_est-&gt;e_t_est_ing</title>
<path fill="none" stroke="#004080" stroke-width=".3" d="M120,-458.2314C120,-450.531 120,-441.3743 120,-432.8166"></path>
<polygon fill="#004080" stroke="#004080" stroke-width=".3" points="123.5001,-432.8132 120,-422.8133 116.5001,-432.8133 123.5001,-432.8132"></polygon>
</g>
<!-- e_t_ra_vel -->
<g id="node22" class="node">
<title>e_t_ra_vel</title>
<defs>
<linearGradient id="l_21" gradientUnits="userSpaceOnUse" x1="165" y1="-404.4" x2="219" y2="-404.4">
<stop offset="0" style="stop-color:#e0ffff;stop-opacity:1.;"></stop>
<stop offset="1" style="stop-color:#80ffff;stop-opacity:1.;"></stop>
</linearGradient>
</defs>
<ellipse fill="url(#l_21)" stroke="#004080" stroke-width=".3" cx="192" cy="-404.4" rx="27" ry="18"></ellipse>
<text text-anchor="middle" x="192" y="-401.4" font-family="Helvetica,sans-Serif" font-size="10.00" fill="#000000">vel = 4</text>
</g>
<!-- e_t_ra&#45;&gt;e_t_ra_vel -->
<g id="edge17" class="edge">
<title>e_t_ra-&gt;e_t_ra_vel</title>
<path fill="none" stroke="#004080" stroke-width=".3" d="M192,-458.2314C192,-450.531 192,-441.3743 192,-432.8166"></path>
<polygon fill="#004080" stroke="#004080" stroke-width=".3" points="195.5001,-432.8132 192,-422.8133 188.5001,-432.8133 195.5001,-432.8132"></polygon>
</g>
<!-- e_t_ra_mway -->
<g id="node23" class="node">
<title>e_t_ra_mway</title>
<defs>
<linearGradient id="l_22" gradientUnits="userSpaceOnUse" x1="237" y1="-404.4" x2="291" y2="-404.4">
<stop offset="0" style="stop-color:#e0ffff;stop-opacity:1.;"></stop>
<stop offset="1" style="stop-color:#80ffff;stop-opacity:1.;"></stop>
</linearGradient>
</defs>
<ellipse fill="url(#l_22)" stroke="#004080" stroke-width=".3" cx="264" cy="-404.4" rx="27" ry="18"></ellipse>
<text text-anchor="middle" x="264" y="-401.4" font-family="Helvetica,sans-Serif" font-size="10.00" fill="#000000">mway = 5</text>
</g>
<!-- e_t_ra&#45;&gt;e_t_ra_mway -->
<g id="edge18" class="edge">
<title>e_t_ra-&gt;e_t_ra_mway</title>
<path fill="none" stroke="#004080" stroke-width=".3" d="M207.2693,-461.1307C217.197,-451.203 230.3153,-438.0847 241.4363,-426.9637"></path>
<polygon fill="#004080" stroke="#004080" stroke-width=".3" points="244.1564,-429.1933 248.7527,-419.6473 239.2067,-424.2436 244.1564,-429.1933"></polygon>
</g>
<!-- f_root -->
<g id="node24" class="node">
<title>f_root</title>
<defs>
<linearGradient id="l_23" gradientUnits="userSpaceOnUse" x1="93" y1="-322" x2="147" y2="-322">
<stop offset="0" style="stop-color:#ffffff;stop-opacity:1.;"></stop>
<stop offset="1" style="stop-color:#e0ffff;stop-opacity:1.;"></stop>
</linearGradient>
</defs>
<ellipse fill="url(#l_23)" stroke="#004080" stroke-width=".3" cx="120" cy="-322" rx="27" ry="18"></ellipse>
<text text-anchor="middle" x="120" y="-319" font-family="Helvetica,sans-Serif" font-size="10.00" fill="#000000">root</text>
</g>
<!-- e_t_est_ing&#45;&gt;f_root -->
<!-- f_t -->
<g id="node25" class="node">
<title>f_t</title>
<defs>
<linearGradient id="l_24" gradientUnits="userSpaceOnUse" x1="93" y1="-250" x2="147" y2="-250">
<stop offset="0" style="stop-color:#ffffff;stop-opacity:1.;"></stop>
<stop offset="1" style="stop-color:#e0ffff;stop-opacity:1.;"></stop>
</linearGradient>
</defs>
<ellipse fill="url(#l_24)" stroke="#004080" stroke-width=".3" cx="120" cy="-250" rx="27" ry="18"></ellipse>
<text text-anchor="middle" x="120" y="-247" font-family="Helvetica,sans-Serif" font-size="10.00" fill="#000000">t</text>
</g>
<!-- f_root&#45;&gt;f_t -->
<g id="edge19" class="edge">
<title>f_root-&gt;f_t</title>
<path fill="none" stroke="#004080" stroke-width=".3" d="M120,-303.8314C120,-296.131 120,-286.9743 120,-278.4166"></path>
<polygon fill="#004080" stroke="#004080" stroke-width=".3" points="123.5001,-278.4132 120,-268.4133 116.5001,-278.4133 123.5001,-278.4132"></polygon>
</g>
<!-- f_t_est -->
<g id="node26" class="node">
<title>f_t_est</title>
<defs>
<linearGradient id="l_25" gradientUnits="userSpaceOnUse" x1="90" y1="-178" x2="144" y2="-178">
<stop offset="0" style="stop-color:#e0ffff;stop-opacity:1.;"></stop>
<stop offset="1" style="stop-color:#80ffff;stop-opacity:1.;"></stop>
</linearGradient>
</defs>
<ellipse fill="url(#l_25)" stroke="#004080" stroke-width=".3" cx="117" cy="-178" rx="27" ry="18"></ellipse>
<text text-anchor="middle" x="117" y="-175" font-family="Helvetica,sans-Serif" font-size="10.00" fill="#000000">est = 1</text>
</g>
<!-- f_t&#45;&gt;f_t_est -->
<g id="edge20" class="edge">
<title>f_t-&gt;f_t_est</title>
<path fill="none" stroke="#004080" stroke-width=".3" d="M119.243,-231.8314C118.9221,-224.131 118.5406,-214.9743 118.184,-206.4166"></path>
<polygon fill="#004080" stroke="#004080" stroke-width=".3" points="121.6806,-206.2589 117.7672,-196.4133 114.6867,-206.5503 121.6806,-206.2589"></polygon>
</g>
<!-- f_t_ra -->
<g id="node27" class="node">
<title>f_t_ra</title>
<defs>
<linearGradient id="l_26" gradientUnits="userSpaceOnUse" x1="162" y1="-178" x2="216" y2="-178">
<stop offset="0" style="stop-color:#ffffff;stop-opacity:1.;"></stop>
<stop offset="1" style="stop-color:#e0ffff;stop-opacity:1.;"></stop>
</linearGradient>
</defs>
<ellipse fill="url(#l_26)" stroke="#004080" stroke-width=".3" cx="189" cy="-178" rx="27" ry="18"></ellipse>
<text text-anchor="middle" x="189" y="-175" font-family="Helvetica,sans-Serif" font-size="10.00" fill="#000000">ra</text>
</g>
<!-- f_t&#45;&gt;f_t_ra -->
<g id="edge21" class="edge">
<title>f_t-&gt;f_t_ra</title>
<path fill="none" stroke="#004080" stroke-width=".3" d="M134.6331,-234.7307C144.1471,-224.803 156.7188,-211.6847 167.3765,-200.5637"></path>
<polygon fill="#004080" stroke="#004080" stroke-width=".3" points="169.9959,-202.8889 174.388,-193.2473 164.9419,-198.0456 169.9959,-202.8889"></polygon>
</g>
<!-- f_t_est_er -->
<g id="node28" class="node">
<title>f_t_est_er</title>
<defs>
<linearGradient id="l_27" gradientUnits="userSpaceOnUse" x1="18" y1="-106" x2="72" y2="-106">
<stop offset="0" style="stop-color:#e0ffff;stop-opacity:1.;"></stop>
<stop offset="1" style="stop-color:#80ffff;stop-opacity:1.;"></stop>
</linearGradient>
</defs>
<ellipse fill="url(#l_27)" stroke="#004080" stroke-width=".3" cx="45" cy="-106" rx="27" ry="18"></ellipse>
<text text-anchor="middle" x="45" y="-103" font-family="Helvetica,sans-Serif" font-size="10.00" fill="#000000">er = 2</text>
</g>
<!-- f_t_est&#45;&gt;f_t_est_er -->
<g id="edge22" class="edge">
<title>f_t_est-&gt;f_t_est_er</title>
<path fill="none" stroke="#004080" stroke-width=".3" d="M101.7307,-162.7307C91.803,-152.803 78.6847,-139.6847 67.5637,-128.5637"></path>
<polygon fill="#004080" stroke="#004080" stroke-width=".3" points="69.7933,-125.8436 60.2473,-121.2473 64.8436,-130.7933 69.7933,-125.8436"></polygon>
</g>
<!-- f_t_est_ing -->
<g id="node29" class="node">
<title>f_t_est_ing</title>
<defs>
<linearGradient id="l_28" gradientUnits="userSpaceOnUse" x1="90" y1="-106" x2="144" y2="-106">
<stop offset="0" style="stop-color:#e0ffff;stop-opacity:1.;"></stop>
<stop offset="1" style="stop-color:#80ffff;stop-opacity:1.;"></stop>
</linearGradient>
</defs>
<ellipse fill="url(#l_28)" stroke="#004080" stroke-width=".3" cx="117" cy="-106" rx="27" ry="18"></ellipse>
<text text-anchor="middle" x="117" y="-103" font-family="Helvetica,sans-Serif" font-size="10.00" fill="#000000">ing = 3</text>
</g>
<!-- f_t_est&#45;&gt;f_t_est_ing -->
<g id="edge23" class="edge">
<title>f_t_est-&gt;f_t_est_ing</title>
<path fill="none" stroke="#004080" stroke-width=".3" d="M117,-159.8314C117,-152.131 117,-142.9743 117,-134.4166"></path>
<polygon fill="#004080" stroke="#004080" stroke-width=".3" points="120.5001,-134.4132 117,-124.4133 113.5001,-134.4133 120.5001,-134.4132"></polygon>
</g>
<!-- f_t_ra_vel -->
<g id="node30" class="node">
<title>f_t_ra_vel</title>
<defs>
<linearGradient id="l_29" gradientUnits="userSpaceOnUse" x1="162" y1="-106" x2="216" y2="-106">
<stop offset="0" style="stop-color:#e0ffff;stop-opacity:1.;"></stop>
<stop offset="1" style="stop-color:#80ffff;stop-opacity:1.;"></stop>
</linearGradient>
</defs>
<ellipse fill="url(#l_29)" stroke="#004080" stroke-width=".3" cx="189" cy="-106" rx="27" ry="18"></ellipse>
<text text-anchor="middle" x="189" y="-103" font-family="Helvetica,sans-Serif" font-size="10.00" fill="#000000">vel = 4</text>
</g>
<!-- f_t_ra&#45;&gt;f_t_ra_vel -->
<g id="edge24" class="edge">
<title>f_t_ra-&gt;f_t_ra_vel</title>
<path fill="none" stroke="#004080" stroke-width=".3" d="M189,-159.8314C189,-152.131 189,-142.9743 189,-134.4166"></path>
<polygon fill="#004080" stroke="#004080" stroke-width=".3" points="192.5001,-134.4132 189,-124.4133 185.5001,-134.4133 192.5001,-134.4132"></polygon>
</g>
<!-- f_t_ra_m -->
<g id="node31" class="node">
<title>f_t_ra_m</title>
<defs>
<linearGradient id="l_30" gradientUnits="userSpaceOnUse" x1="234" y1="-106" x2="288" y2="-106">
<stop offset="0" style="stop-color:#e0ffff;stop-opacity:1.;"></stop>
<stop offset="1" style="stop-color:#80ffff;stop-opacity:1.;"></stop>
</linearGradient>
</defs>
<ellipse fill="url(#l_30)" stroke="#004080" stroke-width=".3" cx="261" cy="-106" rx="27" ry="18"></ellipse>
<text text-anchor="middle" x="261" y="-103" font-family="Helvetica,sans-Serif" font-size="10.00" fill="#000000">m = 6</text>
</g>
<!-- f_t_ra&#45;&gt;f_t_ra_m -->
<g id="edge25" class="edge">
<title>f_t_ra-&gt;f_t_ra_m</title>
<path fill="none" stroke="#004080" stroke-width=".3" d="M204.2693,-162.7307C214.197,-152.803 227.3153,-139.6847 238.4363,-128.5637"></path>
<polygon fill="#004080" stroke="#004080" stroke-width=".3" points="241.1564,-130.7933 245.7527,-121.2473 236.2067,-125.8436 241.1564,-130.7933"></polygon>
</g>
<!-- f_t_ra_m_way -->
<g id="node32" class="node">
<title>f_t_ra_m_way</title>
<defs>
<linearGradient id="l_31" gradientUnits="userSpaceOnUse" x1="234" y1="-34" x2="288" y2="-34">
<stop offset="0" style="stop-color:#e0ffff;stop-opacity:1.;"></stop>
<stop offset="1" style="stop-color:#80ffff;stop-opacity:1.;"></stop>
</linearGradient>
</defs>
<ellipse fill="url(#l_31)" stroke="#004080" stroke-width=".3" cx="261" cy="-34" rx="27" ry="18"></ellipse>
<text text-anchor="middle" x="261" y="-31" font-family="Helvetica,sans-Serif" font-size="10.00" fill="#000000">mway = 5</text>
</g>
<!-- f_t_ra_m&#45;&gt;f_t_ra_m_way -->
<g id="edge26" class="edge">
<title>f_t_ra_m-&gt;f_t_ra_m_way</title>
<path fill="none" stroke="#004080" stroke-width=".3" d="M261,-87.8314C261,-80.131 261,-70.9743 261,-62.4166"></path>
<polygon fill="#004080" stroke="#004080" stroke-width=".3" points="264.5001,-62.4132 261,-52.4133 257.5001,-62.4133 264.5001,-62.4132"></polygon>
</g>
</g>
</svg>