<svg height="39" version="1.1" width="231" xmlns="http://www.w3.org/2000/svg" style="overflow: hidden; position: relative;">
<defs style="-webkit-tap-highlight-color: rgba(0, 0, 0, 0);"/>
<rect x="8" y="8" width="22" height="6" fill="#000"/>
<rect x="8" y="8" width="6" height="22" fill="#000"/>
<rect x="24" y="8" width="6" height="22" fill="#000"/>
<rect x="8" y="16" width="22" height="6" fill="#000"/>
<rect x="16" y="24" width="6" height="6" fill="#000"/>
<rect x="32" y="8" width="6" height="22" fill="#000"/>
<rect x="48" y="8" width="6" height="22" fill="#000"/>
<rect x="32" y="24" width="22" height="6" fill="#000"/>
<rect x="40" y="8" width="6" height="14" fill="#000"/>
<rect x="56" y="8" width="22" height="6" fill="#000"/>
<rect x="64" y="8" width="6" height="22" fill="#000"/>
<rect x="56" y="16" width="6" height="14" fill="#000"/>
<rect x="72" y="16" width="6" height="14" fill="#000"/>
<rect x="80" y="8" width="22" height="6" fill="#000"/>
<rect x="80" y="24" width="22" height="6" fill="#000"/>
<rect x="80" y="8" width="6" height="22" fill="#000"/>
<rect x="96" y="8" width="6" height="22" fill="#000"/>
<rect x="88" y="16" width="6" height="6" fill="#000"/>
<rect x="104" y="8" width="6" height="22" fill="#000"/>
<rect x="104" y="8" width="22" height="6" fill="#000"/>
<rect x="112" y="8" width="6" height="14" fill="#000"/>
<rect x="120" y="8" width="6" height="22" fill="#000"/>
<rect x="112" y="24" width="6" height="6" fill="#000"/>
<rect x="128" y="8" width="22" height="6" fill="#000"/>
<rect x="128" y="8" width="6" height="22" fill="#000"/>
<rect x="144" y="8" width="6" height="22" fill="#000"/>
<rect x="128" y="16" width="22" height="6" fill="#000"/>
<rect x="136" y="24" width="6" height="6" fill="#000"/>
<rect x="152" y="8" width="22" height="6" fill="#000"/>
<rect x="160" y="8" width="6" height="22" fill="#000"/>
<rect x="152" y="16" width="6" height="14" fill="#000"/>
<rect x="168" y="16" width="6" height="14" fill="#000"/>
<rect x="176" y="8" width="22" height="6" fill="#000"/>
<rect x="176" y="24" width="22" height="6" fill="#000"/>
<rect x="176" y="8" width="6" height="22" fill="#000"/>
<rect x="192" y="8" width="6" height="22" fill="#000"/>
<rect x="184" y="16" width="6" height="6" fill="#000"/>
<rect x="200" y="8" width="6" height="22" fill="#000"/>
<rect x="216" y="8" width="6" height="22" fill="#000"/>
<rect x="200" y="8" width="14" height="6" fill="#000"/>
<rect x="208" y="8" width="6" height="22" fill="#000"/>
<rect x="208" y="24" width="14" height="6" fill="#000"/>
</svg>