<?xml version="1.0" encoding="UTF-8" standalone="no"?><!DOCTYPE svg PUBLIC "-//W3C//DTD SVG 1.1//EN" "http://www.w3.org/Graphics/SVG/1.1/DTD/svg11.dtd"><svg viewBox="0 0 64 64" version="1.1" xmlns="http://www.w3.org/2000/svg" xmlns:xlink="http://www.w3.org/1999/xlink" xml:space="preserve" xmlns:serif="http://www.serif.com/" style="fill-rule:evenodd;clip-rule:evenodd;stroke-linejoin:round;stroke-miterlimit:1.41421;"><path d="M32,0l0.785,0.01l0.785,0.029l0.784,0.048l0.783,0.067l0.78,0.087l0.778,0.105l0.776,0.125l0.772,0.144l0.768,0.163l0.764,0.181l0.76,0.2l0.754,0.219l0.749,0.237l0.742,0.256l0.737,0.273l0.729,0.292l0.722,0.309l0.714,0.327l0.706,0.345l0.697,0.362l0.688,0.378l0.678,0.396l0.669,0.412l0.658,0.428l0.648,0.444l0.636,0.46l0.625,0.476l0.614,0.491l0.601,0.505l0.588,0.521l0.575,0.534l0.562,0.549l0.549,0.562l0.534,0.575l0.521,0.588l0.505,0.601l0.491,0.614l0.476,0.625l0.46,0.636l0.444,0.648l0.428,0.658l0.412,0.669l0.396,0.678l0.378,0.688l0.362,0.697l0.345,0.706l0.327,0.714l0.309,0.722l0.292,0.729l0.273,0.737l0.256,0.742l0.237,0.749l0.219,0.754l0.2,0.76l0.181,0.764l0.163,0.768l0.144,0.772l0.125,0.776l0.105,0.778l0.087,0.78l0.067,0.783l0.048,0.784l0.029,0.785l0.01,0.785l-0.01,0.785l-0.029,0.785l-0.048,0.784l-0.067,0.783l-0.087,0.78l-0.105,0.778l-0.125,0.776l-0.144,0.772l-0.163,0.768l-0.181,0.764l-0.2,0.76l-0.219,0.754l-0.237,0.749l-0.256,0.742l-0.273,0.737l-0.292,0.729l-0.309,0.722l-0.327,0.714l-0.345,0.706l-0.362,0.697l-0.378,0.688l-0.396,0.678l-0.412,0.669l-0.428,0.658l-0.444,0.648l-0.46,0.636l-0.476,0.625l-0.491,0.614l-0.505,0.601l-0.521,0.588l-0.534,0.575l-0.549,0.562l-0.562,0.549l-0.575,0.534l-0.588,0.521l-0.601,0.505l-0.614,0.491l-0.625,0.476l-0.636,0.46l-0.648,0.444l-0.658,0.428l-0.669,0.412l-0.678,0.396l-0.688,0.378l-0.697,0.362l-0.706,0.345l-0.714,0.327l-0.722,0.309l-0.729,0.292l-0.737,0.273l-0.742,0.256l-0.749,0.237l-0.754,0.219l-0.76,0.2l-0.764,0.181l-0.768,0.163l-0.772,0.144l-0.776,0.125l-0.778,0.105l-0.78,0.087l-0.783,0.067l-0.784,0.048l-0.785,0.029l-0.785,0.01l-0.785,-0.01l-0.785,-0.029l-0.784,-0.048l-0.783,-0.067l-0.78,-0.087l-0.778,-0.105l-0.776,-0.125l-0.772,-0.144l-0.768,-0.163l-0.764,-0.181l-0.76,-0.2l-0.754,-0.219l-0.749,-0.237l-0.742,-0.256l-0.737,-0.273l-0.729,-0.292l-0.722,-0.309l-0.714,-0.327l-0.706,-0.345l-0.697,-0.362l-0.688,-0.378l-0.678,-0.396l-0.669,-0.412l-0.658,-0.428l-0.648,-0.444l-0.636,-0.46l-0.625,-0.476l-0.614,-0.491l-0.601,-0.505l-0.588,-0.521l-0.575,-0.534l-0.562,-0.549l-0.549,-0.562l-0.534,-0.575l-0.521,-0.588l-0.505,-0.601l-0.491,-0.614l-0.476,-0.625l-0.46,-0.636l-0.444,-0.648l-0.428,-0.658l-0.412,-0.669l-0.396,-0.678l-0.378,-0.688l-0.362,-0.697l-0.345,-0.706l-0.327,-0.714l-0.309,-0.722l-0.292,-0.729l-0.273,-0.737l-0.256,-0.742l-0.237,-0.749l-0.219,-0.754l-0.2,-0.76l-0.181,-0.764l-0.163,-0.768l-0.144,-0.772l-0.125,-0.776l-0.105,-0.778l-0.087,-0.78l-0.067,-0.783l-0.048,-0.784l-0.029,-0.785l-0.01,-0.785l0.01,-0.785l0.029,-0.785l0.048,-0.784l0.067,-0.783l0.087,-0.78l0.105,-0.778l0.125,-0.776l0.144,-0.772l0.163,-0.768l0.181,-0.764l0.2,-0.76l0.219,-0.754l0.237,-0.749l0.256,-0.742l0.273,-0.737l0.292,-0.729l0.309,-0.722l0.327,-0.714l0.345,-0.706l0.362,-0.697l0.378,-0.688l0.396,-0.678l0.412,-0.669l0.428,-0.658l0.444,-0.648l0.46,-0.636l0.476,-0.625l0.491,-0.614l0.505,-0.601l0.521,-0.588l0.534,-0.575l0.549,-0.562l0.562,-0.549l0.575,-0.534l0.588,-0.521l0.601,-0.505l0.614,-0.491l0.625,-0.476l0.636,-0.46l0.648,-0.444l0.658,-0.428l0.669,-0.412l0.678,-0.396l0.688,-0.378l0.697,-0.362l0.706,-0.345l0.714,-0.327l0.722,-0.309l0.729,-0.292l0.737,-0.273l0.742,-0.256l0.749,-0.237l0.754,-0.219l0.76,-0.2l0.764,-0.181l0.768,-0.163l0.772,-0.144l0.776,-0.125l0.778,-0.105l0.78,-0.087l0.783,-0.067l0.784,-0.048l0.785,-0.029l0.785,-0.01Z"/><path d="M60.8,32c0,-3.697 -0.712,-7.36 -2.097,-10.789l-5.341,2.158c1.108,2.743 1.678,5.673 1.678,8.631l5.76,0Z" style="fill:#f00;"/><path d="M58.608,20.979c-1.415,-3.416 -3.475,-6.528 -6.066,-9.165l-4.109,4.037c2.074,2.11 3.721,4.599 4.853,7.332l5.322,-2.204Z" style="fill:#ff6200;"/><path d="M52.365,11.635c-2.615,-2.614 -5.708,-4.701 -9.112,-6.146l-2.251,5.303c2.723,1.155 5.198,2.825 7.29,4.916l4.073,-4.073Z" style="fill:#ffbf00;"/><path d="M43.021,5.392c-3.416,-1.415 -7.072,-2.159 -10.77,-2.191l-0.05,5.76c2.958,0.026 5.883,0.621 8.616,1.753l2.204,-5.322Z" style="fill:#df0;"/><path d="M32,3.2c-3.697,0 -7.36,0.712 -10.789,2.097l2.158,5.341c2.743,-1.108 5.673,-1.678 8.631,-1.678l0,-5.76Z" style="fill:#7fff00;"/><path d="M20.979,5.392c-3.416,1.415 -6.528,3.475 -9.165,6.066l4.037,4.109c2.11,-2.074 4.599,-3.721 7.332,-4.853l-2.204,-5.322Z" style="fill:#2f0;"/><path d="M11.635,11.635c-2.614,2.615 -4.701,5.708 -6.146,9.112l5.303,2.251c1.155,-2.723 2.825,-5.198 4.916,-7.29l-4.073,-4.073Z" style="fill:#00ff40;"/><path d="M5.392,20.979c-1.415,3.416 -2.159,7.072 -2.191,10.77l5.76,0.05c0.026,-2.958 0.621,-5.883 1.753,-8.616l-5.322,-2.204Z" style="fill:#00ff9d;"/><path d="M3.2,32c0,3.698 0.712,7.36 2.097,10.789l5.341,-2.158c-1.108,-2.743 -1.678,-5.673 -1.678,-8.631l-5.76,0Z" style="fill:#0ff;"/><path d="M5.392,43.021c1.415,3.416 3.475,6.528 6.066,9.165l4.109,-4.037c-2.074,-2.11 -3.721,-4.599 -4.853,-7.332l-5.322,2.204Z" style="fill:#009dff;"/><path d="M11.635,52.365c2.615,2.614 5.708,4.701 9.112,6.146l2.251,-5.303c-2.723,-1.155 -5.198,-2.825 -7.29,-4.916l-4.073,4.073Z" style="fill:#0040ff;"/><path d="M20.979,58.608c3.416,1.415 7.072,2.159 10.77,2.191l0.05,-5.76c-2.958,-0.026 -5.883,-0.621 -8.616,-1.753l-2.204,5.322Z" style="fill:#1e00ff;"/><path d="M32,60.8c3.697,0 7.36,-0.712 10.789,-2.097l-2.158,-5.341c-2.743,1.108 -5.673,1.678 -8.631,1.678l0,5.76Z" style="fill:#8000ff;"/><path d="M43.021,58.608c3.416,-1.415 6.528,-3.475 9.165,-6.066l-4.037,-4.109c-2.11,2.074 -4.599,3.721 -7.332,4.853l2.204,5.322Z" style="fill:#e100ff;"/><path d="M52.365,52.365c2.614,-2.615 4.701,-5.708 6.146,-9.112l-5.303,-2.251c-1.155,2.723 -2.825,5.198 -4.916,7.29l4.073,4.073Z" style="fill:#ff00bf;"/><path d="M58.608,43.021c1.415,-3.416 2.159,-7.072 2.191,-10.77l-5.76,-0.05c-0.026,2.958 -0.621,5.883 -1.753,8.616l5.322,2.204Z" style="fill:#ff005e;"/><rect x="20.224" y="20.224" width="23.552" height="7.168" style="fill:#fff;"/><rect x="20.224" y="20.224" width="7.168" height="23.552" style="fill:#fff;"/><rect x="36.608" y="20.224" width="7.168" height="23.552" style="fill:#fff;"/><rect x="20.224" y="28.416" width="23.552" height="7.168" style="fill:#fff;"/><rect x="28.416" y="36.608" width="7.168" height="7.168" style="fill:#fff;"/></svg>