<?xml version="1.0" encoding="UTF-8" standalone="no"?>
<svg width="99px" height="99px" viewBox="0 0 99 99" version="1.1" xmlns="http://www.w3.org/2000/svg" xmlns:xlink="http://www.w3.org/1999/xlink">
    <!-- Generator: Sketch 3.8.3 (29802) - http://www.bohemiancoding.com/sketch -->
    <title>Artboard</title>
    <desc>Created with Sketch.</desc>
    <defs>
        <polygon id="path-1" points="0.06 99 98.907 99 98.907 0.09 0.06 0.09"></polygon>
    </defs>
    <g id="Page-1" stroke="none" stroke-width="1" fill="none" fill-rule="evenodd">
        <g id="Artboard">
            <g id="Tracker_Icon">
                <path d="M36.356,22.757 L47.398,41.881 C49.151,41.412 51.065,41.549 52.805,42.363 L58.61,32.309 L48.907,15.508 L36.242,22.822 L36.243,22.822 L36.356,22.757" id="Fill-1" fill="#DE752C"></path>
                <path d="M19.71,47.496 L41.799,47.496 C41.975,46.839 42.229,46.191 42.585,45.576 C43.185,44.535 43.99,43.69 44.914,43.045 L39.11,32.994 L19.704,32.994 L19.704,47.621 L19.71,47.621 L19.71,47.496" id="Fill-2" fill="#DE752C"></path>
                <path d="M56.319,53.506 C55.717,54.547 54.917,55.389 53.995,56.033 L59.803,66.092 L79.204,66.092 L79.204,51.592 L57.106,51.592 C56.928,52.249 56.672,52.891 56.319,53.506" id="Fill-3" fill="#DE752C"></path>
                <path d="M55.051,43.937 C56.391,45.271 57.188,47.023 57.348,48.86 L68.954,48.86 L78.657,32.058 L66.1,24.806 L55.051,43.937" id="Fill-4" fill="#DE752C"></path>
                <path d="M32.806,74.282 L43.855,55.143 C42.521,53.807 41.724,52.06 41.56,50.229 L29.948,50.229 L20.245,67.023 L32.907,74.342 L32.806,74.282" id="Fill-5" fill="#DE752C"></path>
                <g id="Group-9">
                    <mask id="mask-2" fill="white">
                        <use xlink:href="#path-1"></use>
                    </mask>
                    <g id="Clip-7"></g>
                    <path d="M62.553,76.326 L51.513,57.201 C49.761,57.674 47.845,57.541 46.103,56.722 L40.296,66.779 L49.993,83.576 L62.659,76.265 L62.553,76.326" id="Fill-6" fill="#DE752C" mask="url(#mask-2)"></path>
                    <path d="M49.457,0.09 C22.187,0.09 0,22.271 0,49.537 C0,76.811 22.187,99 49.457,99 C76.725,99 98.907,76.811 98.907,49.537 C98.907,22.271 76.725,0.09 49.457,0.09 L49.457,0.09 Z M49.457,10.102 C71.237,10.102 88.893,27.756 88.893,49.537 C88.893,71.324 71.237,88.987 49.457,88.987 C27.674,88.987 10.015,71.324 10.015,49.537 C10.015,27.756 27.674,10.102 49.457,10.102 L49.457,10.102 Z" id="Fill-8" fill="#517A9E" mask="url(#mask-2)"></path>
                </g>
            </g>
        </g>
    </g>
</svg>